<?xml version="1.0" standalone="no"?>
<!DOCTYPE svg PUBLIC "-//W3C//DTD SVG 20010904//EN"
 "http://www.w3.org/TR/2001/REC-SVG-20010904/DTD/svg10.dtd">
<svg version="1.0" xmlns="http://www.w3.org/2000/svg"
 width="200.000000pt" height="200.000000pt" viewBox="0 0 200.000000 200.000000"
 preserveAspectRatio="xMidYMid meet">
<metadata>
Created by potrace 1.11, written by Peter Selinger 2001-2013
</metadata>
<g transform="translate(0.000000,200.000000) scale(0.100000,-0.100000)"
fill="#000000" stroke="none">
<path d="M881 1659 c-49 -19 -100 -71 -130 -130 -39 -78 -47 -132 -27 -187
l15 -43 -59 -74 c-70 -89 -162 -247 -190 -329 -43 -125 -17 -260 64 -334 24
-22 53 -45 65 -51 32 -17 26 -27 -24 -40 -55 -14 -95 -62 -102 -124 -6 -47 16
-103 43 -114 20 -7 19 -141 -1 -190 -17 -41 -11 -58 11 -29 12 17 14 18 14 3
0 -14 11 -17 70 -17 l70 0 0 63 c0 36 6 71 13 81 12 16 14 17 27 2 7 -9 16
-45 19 -79 l6 -62 318 -3 317 -2 0 37 1 38 17 -35 17 -35 78 -3 78 -3 -30 59
c-16 32 -37 83 -46 114 l-16 57 30 42 c69 95 14 230 -107 261 l-43 11 20 21
c31 33 61 109 67 174 12 115 -44 282 -140 417 -54 75 -167 184 -224 215 -40
23 -42 26 -35 55 4 16 7 56 7 87 -3 118 -93 187 -193 147z m-6 -59 c-3 -5 -13
-10 -21 -10 -8 0 -14 5 -14 10 0 6 9 10 21 10 11 0 17 -4 14 -10z m-54 -37
c-5 -10 -21 -28 -35 -40 -28 -25 -32 -43 -15 -60 13 -13 3 -73 -12 -73 -13 0
-11 97 2 123 15 28 50 67 61 67 5 0 4 -8 -1 -17z m-11 -63 c0 -5 -4 -10 -10
-10 -5 0 -10 5 -10 10 0 6 5 10 10 10 6 0 10 -4 10 -10z m252 -336 c25 -7 50
-52 43 -75 -10 -29 -53 -45 -178 -63 -156 -23 -202 -22 -232 9 -66 65 9 117
190 134 84 8 137 7 177 -5z m-451 -97 c-55 -107 -81 -201 -81 -284 0 -73 24
-127 78 -175 30 -27 39 -42 35 -57 -5 -20 -6 -20 -44 7 -114 84 -138 210 -70
372 28 69 116 230 125 230 3 0 -17 -42 -43 -93z m367 -309 c-3 -60 -4 -63 -30
-66 -28 -3 -28 -3 -28 57 0 60 5 69 43 70 16 1 18 -7 15 -61z m-68 -8 c0 -33
-4 -60 -10 -60 -16 0 -30 37 -30 79 0 34 3 41 20 41 18 0 20 -7 20 -60z m-221
-219 l21 -29 -29 11 c-20 7 -27 15 -23 29 6 24 7 23 31 -11z m-172 -173 c-3
-8 -6 -5 -6 6 -1 11 2 17 5 13 3 -3 4 -12 1 -19z m390 -34 c-3 -3 -12 -4 -19
-1 -8 3 -5 6 6 6 11 1 17 -2 13 -5z m-170 -90 c9 -25 -12 -38 -31 -19 -9 9
-14 21 -11 26 10 14 35 10 42 -7z m-168 -188 c-9 -8 -10 -5 -5 14 3 14 7 34 7
45 1 11 4 5 6 -14 3 -19 -1 -39 -8 -45z"/>
</g>
</svg>
